# xmcd CD database file
#
# Track frame offsets:
#	150
#	2403
#	24029
#	40410
#	65946
#	75498
#	95571
#	119139
#	143857
#	157649
#	180627
#	193519
#	226505
#	250634
#
# Disc length: 3598 seconds
#
# Revision: 0
# Processed by: cddbd v1.5PL3 Copyright (c) Steve Scherf et al.
# Submitted via: CDex 1.51
#
DISCID=a30e0c0e
DTITLE=Heinrich Böll - Ansichten eines Clowns CD1
DYEAR=1963
DGENRE=Lesung
TTITLE0=Ansichten eines Clowns CD1
TTITLE1=Ansichten eines Clowns CD1
TTITLE2=Ansichten eines Clowns CD1
TTITLE3=Ansichten eines Clowns CD1
TTITLE4=Ansichten eines Clowns CD1
TTITLE5=Ansichten eines Clowns CD1
TTITLE6=Ansichten eines Clowns CD1
TTITLE7=Ansichten eines Clowns CD1
TTITLE8=Ansichten eines Clowns CD1
TTITLE9=Ansichten eines Clowns CD1
TTITLE10=Ansichten eines Clowns CD1
TTITLE11=Ansichten eines Clowns CD1
TTITLE12=Ansichten eines Clowns CD1
TTITLE13=Ansichten eines Clowns CD1
EXTD=YEAR: 1963
EXTT0=
EXTT1=
EXTT2=
EXTT3=
EXTT4=
EXTT5=
EXTT6=
EXTT7=
EXTT8=
EXTT9=
EXTT10=
EXTT11=
EXTT12=
EXTT13=
PLAYORDER=
